<?xml version="1.0" encoding="utf-8"?>
<!-- Generator: Adobe Illustrator 28.2.0, SVG Export Plug-In . SVG Version: 6.00 Build 0)  -->
<svg version="1.1" id="Слой_1" xmlns="http://www.w3.org/2000/svg" xmlns:xlink="http://www.w3.org/1999/xlink" x="0px" y="0px"
	 viewBox="0 0 1920 1080" style="enable-background:new 0 0 1920 1080;" xml:space="preserve">
<style type="text/css">
	.st0{fill:#3A86FF;}
	.st1{fill:none;}
	.st2{opacity:0.2;enable-background:new    ;}
	.st3{fill:#EFECEA;}
	.st4{fill:#FFFFFF;}
</style>
<g>
	<g>
		<g>
			<ellipse class="st0" cx="960" cy="540" rx="540" ry="540"/>
		</g>
		<g>
			<path class="st1" d="M699.6,856.8L828,813.6l422.2-357.5l234.2,212.7c10.1-41.3,15.5-84.4,15.5-128.8c0-298.2-241.8-540-540-540
				S420,241.8,420,540c0,293.3,233.8,531.9,525.1,539.8L699.6,856.8z"/>
			<path class="st2" d="M828,813.6l-128.4,43.2l245.6,222.9c4.9,0.1,9.9,0.2,14.9,0.2c253.8,0,466.7-175.1,524.5-411.2L1250.4,456
				L828,813.6z"/>
		</g>
	</g>
	<g>
		<g>
			<path class="st3" d="M1218.3,734.9c-65.4,0-118.7-53.2-118.7-118.7s53.2-118.7,118.7-118.7c65.4,0,118.7,53.2,118.7,118.7
				S1283.7,734.9,1218.3,734.9z M1218.3,543.5c-40.1,0-72.7,32.6-72.7,72.7c0,40.1,32.6,72.7,72.7,72.7s72.7-32.6,72.7-72.7
				S1258.4,543.5,1218.3,543.5z"/>
		</g>
		<path class="st4" d="M936.4,389.8c18.9-24.4,34.9-95.1,1.1-127.5c-33.4-32.1-55.4-61.9-52.8-91.5c2.1-23,19.1-45.8,57.3-69.3
			c-25.6,28.6-38.1,76.5-13.9,107.9c24.8,28.2,67.6,49.8,65.4,96.3c-2.9,32.9-13.1,51.1-38,72.1
			C943.9,385.7,936.4,389.8,936.4,389.8z"/>
		<g>
			<path class="st4" d="M635.2,454.7c0,259.5,137.9,359,307.9,359s307.9-99.5,307.9-359H635.2z"/>
		</g>
		<g>
			<path class="st3" d="M1192.4,831.7c0,19-15.4,34.4-34.4,34.4H726.2c-19,0-34.4-15.4-34.4-34.4v-1.9c0-19,15.4-34.4,34.4-34.4
				h431.7c19,0,34.4,15.4,34.4,34.4L1192.4,831.7L1192.4,831.7z"/>
		</g>
	</g>
</g>
</svg>
