<?xml version="1.0" encoding="utf-8"?>
<!-- Generator: Adobe Illustrator 28.2.0, SVG Export Plug-In . SVG Version: 6.00 Build 0)  -->
<svg version="1.1" id="Слой_1" xmlns="http://www.w3.org/2000/svg" xmlns:xlink="http://www.w3.org/1999/xlink" x="0px" y="0px"
	 viewBox="0 0 22 22" style="enable-background:new 0 0 22 22;" xml:space="preserve">
<style type="text/css">
	.st0{fill-rule:evenodd;clip-rule:evenodd;fill:#3A86FF;}
</style>
<path class="st0" d="M10.2,1.5c-4.8,0-8.8,3.9-8.8,8.8c0,4.8,3.9,8.8,8.8,8.8c4.8,0,8.8-3.9,8.8-8.8S15.1,1.5,10.2,1.5z M0,10.2
	C0,4.6,4.6,0,10.2,0c5.7,0,10.2,4.6,10.2,10.2c0,2.6-0.9,4.9-2.5,6.7l3.3,3.3c0.3,0.3,0.3,0.8,0,1.1s-0.8,0.3-1.1,0L16.9,18
	c-1.8,1.6-4.1,2.5-6.7,2.5C4.6,20.5,0,15.9,0,10.2z"/>
</svg>
