<?xml version="1.0" encoding="utf-8"?>
<!-- Generator: Adobe Illustrator 28.2.0, SVG Export Plug-In . SVG Version: 6.00 Build 0)  -->
<svg version="1.1" id="Слой_1" xmlns="http://www.w3.org/2000/svg" xmlns:xlink="http://www.w3.org/1999/xlink" x="0px" y="0px"
	 viewBox="0 0 22 22" style="enable-background:new 0 0 22 22;" xml:space="preserve">
<style type="text/css">
	.st0{fill-rule:evenodd;clip-rule:evenodd;fill:#A2D2FF;}
</style>
<path class="st0" d="M10.9,0.2h1.6c0.4,0,0.8,0.3,0.8,0.8c0,0.4-0.3,0.8-0.8,0.8H11c-2.4,0-4.1,0-5.4,0.2C4.3,2.1,3.6,2.4,3,3
	C2.4,3.6,2.1,4.3,1.9,5.6c-0.2,1.3-0.2,3-0.2,5.4c0,2.4,0,4.1,0.2,5.4c0.2,1.3,0.5,2,1.1,2.6c0.6,0.6,1.3,0.9,2.6,1.1
	c1.3,0.2,3,0.2,5.4,0.2c2.4,0,4.1,0,5.4-0.2c1.3-0.2,2-0.5,2.6-1.1s0.9-1.3,1.1-2.6c0.2-1.3,0.2-3,0.2-5.4V9.5
	c0-0.4,0.3-0.8,0.8-0.8s0.8,0.3,0.8,0.8v1.6c0,2.3,0,4.1-0.2,5.5c-0.2,1.4-0.6,2.6-1.5,3.5c-0.9,0.9-2,1.3-3.5,1.5
	c-1.4,0.2-3.2,0.2-5.5,0.2h-0.1c-2.3,0-4.1,0-5.5-0.2C4,21.4,2.8,21,1.9,20.1c-0.9-0.9-1.3-2-1.5-3.5c-0.2-1.4-0.2-3.2-0.2-5.5v-0.1
	c0-2.3,0-4.1,0.2-5.5C0.6,4,1,2.8,1.9,1.9s2-1.3,3.5-1.5C6.8,0.2,8.6,0.2,10.9,0.2z M15.8,1.3c1.4-1.4,3.6-1.4,5,0
	c1.4,1.4,1.4,3.6,0,5l-6.6,6.6c-0.4,0.4-0.6,0.6-0.9,0.8c-0.3,0.2-0.6,0.4-1,0.6c-0.3,0.1-0.6,0.2-1.1,0.4l-2.9,1
	c-0.5,0.2-1.1,0-1.5-0.4c-0.4-0.4-0.5-1-0.4-1.5l1-2.9c0.2-0.5,0.3-0.8,0.4-1.1c0.2-0.3,0.4-0.7,0.6-1c0.2-0.3,0.4-0.5,0.8-0.9
	L15.8,1.3z M19.7,2.3c-0.8-0.8-2.1-0.8-2.8,0l-0.4,0.4c0,0.1,0.1,0.2,0.1,0.3c0.1,0.4,0.4,1,0.9,1.5s1.1,0.8,1.5,0.9
	c0.1,0,0.2,0.1,0.3,0.1l0.4-0.4C20.4,4.4,20.4,3.1,19.7,2.3z M18.1,6.7c-0.5-0.2-1.1-0.6-1.7-1.1c-0.6-0.6-0.9-1.2-1.1-1.7L10.2,9
	C9.8,9.4,9.6,9.5,9.5,9.7c-0.2,0.2-0.3,0.5-0.4,0.7c-0.1,0.2-0.2,0.4-0.4,1l-0.4,1.3l1,1l1.3-0.4c0.6-0.2,0.8-0.3,1-0.4
	c0.3-0.1,0.5-0.3,0.7-0.4c0.2-0.1,0.3-0.3,0.8-0.7L18.1,6.7z"/>
</svg>
